<svg xmlns="http://www.w3.org/2000/svg">
  ...
  <symbol id="info-red" viewBox="0 0 16 16">
    <svg width="16" height="16" viewBox="0 0 16 16" fill="none" xmlns="http://www.w3.org/2000/svg">
        <circle cx="8" cy="8" r="8" fill="#EC133D"/>
        <path d="M8 4V8" stroke="white" stroke-width="2" stroke-linecap="round" stroke-linejoin="round"/>
        <path d="M8.5 11C8.5 11.2761 8.2761 11.5 8 11.5C7.7239 11.5 7.5 11.2761 7.5 11C7.5 10.7239 7.7239 10.5 8 10.5C8.2761 10.5 8.5 10.7239 8.5 11Z" stroke="white" stroke-linecap="round" stroke-linejoin="round"/>
    </svg>

  </symbol>

    <symbol id="info-black" viewBox="0 0 16 16">
        <svg width="16" height="16" viewBox="0 0 16 16" fill="none" xmlns="http://www.w3.org/2000/svg">
            <path d="M8 8.66669V10" stroke="black" stroke-width="2" stroke-linecap="round" stroke-linejoin="round"/>
            <path d="M8 7C8.55228 7 9 6.55228 9 6C9 5.44772 8.55228 5 8 5C7.44772 5 7 5.44772 7 6C7 6.55228 7.44772 7 8 7Z" fill="black"/>
            <path d="M7.99999 12.8334C10.6694 12.8334 12.8333 10.6694 12.8333 8.00002C12.8333 5.33064 10.6694 3.16669 7.99999 3.16669C5.33061 3.16669 3.16666 5.33064 3.16666 8.00002C3.16666 10.6694 5.33061 12.8334 7.99999 12.8334Z" stroke="black" stroke-width="1.5" stroke-linecap="round" stroke-linejoin="round"/>
        </svg>
    </symbol>

</svg>